#Comment line ignore any data following # character 
#Hierarchical Translation and Rotation (.htr) file 
[Header]	
#Header keywords are followed by a single value 
FileType HTR		#Single word string
DataType HTRS		#Translation followed by rotation and scale data
FileVersion 1		#integer
NumSegments 84		#integer
NumFrames 2		#integer
DataFrameRate 30		#integer, data frame rate in this file
EulerRotationOrder ZYX
CalibrationUnits mm
RotationUnits Degrees
GlobalAxisofGravity Y
BoneLengthAxis Y
ScaleFactor 1.00
[SegmentNames&Hierarchy]
#CHILD	PARENT
MASTER GLOBAL
root MASTER
chest root
L_mid_tent01 root
R_mid_tent01 root
spine01 root
Bip01_Neck chest
L_humerus chest
R_humerus chest
weapon_bone chest
Bip01_Head Bip01_Neck
eye_left_bone Bip01_Head
eye_right_bone Bip01_Head
L_forearm L_humerus
L_front_hand L_forearm
L_weapon_bone L_forearm
L_front_hand01_01 L_front_hand
L_front_hand02_01 L_front_hand
L_front_hand03_01 L_front_hand
L_front_hand01_02 L_front_hand01_01
L_front_hand02_02 L_front_hand02_01
L_front_hand03_02 L_front_hand03_01
R_forearm R_humerus
R_front_hand R_forearm
R_weapon_bone R_forearm
R_front_hand01_01 R_front_hand
R_front_hand02_01 R_front_hand
R_front_hand03_01 R_front_hand
R_front_hand01_02 R_front_hand01_01
R_front_hand02_02 R_front_hand02_01
R_front_hand03_02 R_front_hand03_01
null_rope01_connect L_mid_tent01
Rope1_Seg01 null_rope01_connect
Rope1_Seg02 Rope1_Seg01
Rope1_Seg03 Rope1_Seg02
Rope1_Seg04 Rope1_Seg03
Rope1_Seg05 Rope1_Seg04
Rope1_Seg06 Rope1_Seg05
Rope1_Seg07 Rope1_Seg06
Rope1_Seg09 Rope1_Seg07
L_mid_hand01 Rope1_Seg09
L_mid_hand02 Rope1_Seg09
L_mid_hand03 Rope1_Seg09
null_rope02_connect R_mid_tent01
Rope2_Seg01 null_rope02_connect
Rope2_Seg02 Rope2_Seg01
Rope2_Seg03 Rope2_Seg02
Rope2_Seg04 Rope2_Seg03
Rope2_Seg05 Rope2_Seg04
Rope2_Seg06 Rope2_Seg05
Rope2_Seg07 Rope2_Seg06
Rope2_Seg09 Rope2_Seg07
R_mid_hand01 Rope2_Seg09
R_mid_hand02 Rope2_Seg09
R_mid_hand03 Rope2_Seg09
spine02 spine01
spine03 spine02
pelvis spine03
null_rope03_connect pelvis
null_rope04_connect pelvis
Rope3_Seg01 null_rope03_connect
Rope3_Seg02 Rope3_Seg01
Rope3_Seg03 Rope3_Seg02
Rope3_Seg04 Rope3_Seg03
Rope3_Seg05 Rope3_Seg04
Rope3_Seg06 Rope3_Seg05
Rope3_Seg07 Rope3_Seg06
Rope3_Seg08 Rope3_Seg07
Rope3_Seg09 Rope3_Seg08
R_rear_hand01 Rope3_Seg09
R_rear_hand02 Rope3_Seg09
R_rear_hand03 Rope3_Seg09
Rope4_Seg01 null_rope04_connect
Rope4_Seg02 Rope4_Seg01
Rope4_Seg03 Rope4_Seg02
Rope4_Seg04 Rope4_Seg03
Rope4_Seg05 Rope4_Seg04
Rope4_Seg06 Rope4_Seg05
Rope4_Seg07 Rope4_Seg06
Rope4_Seg08 Rope4_Seg07
Rope4_Seg09 Rope4_Seg08
L_rear_hand01 Rope4_Seg09
L_rear_hand02 Rope4_Seg09
L_rear_hand03 Rope4_Seg09
[BasePosition]
#SegmentName Tx, Ty, Tz, Rx, Ry, Rz, BoneLength
MASTER 0.000000 0.000000 0.000000 -90.000000 0.000000 0.000000 10.000000 
root 0.000000 0.000000 0.000000 0.000000 0.000000 0.000000 10.000000 
chest 0.000000 0.000000 0.000000 0.000000 0.000000 0.000000 10.000000 
L_mid_tent01 0.000000 0.000000 0.000000 0.000000 0.000000 0.000000 10.000000 
R_mid_tent01 0.000000 0.000000 0.000000 0.000000 0.000000 0.000000 10.000000 
spine01 0.000000 0.000000 0.000000 0.000000 0.000000 0.000000 10.000000 
Bip01_Neck 0.000000 0.000000 0.000000 0.000000 0.000000 0.000000 10.000000 
L_humerus 0.000000 0.000000 0.000000 0.000000 0.000000 0.000000 10.000000 
R_humerus 0.000000 0.000000 0.000000 0.000000 0.000000 0.000000 10.000000 
weapon_bone 0.000000 0.000000 0.000000 0.000000 0.000000 0.000000 10.000000 
Bip01_Head 0.000000 0.000000 0.000000 0.000000 0.000000 0.000000 10.000000 
eye_left_bone 0.000000 0.000000 0.000000 0.000000 0.000000 0.000000 10.000000 
eye_right_bone 0.000000 0.000000 0.000000 0.000000 0.000000 0.000000 10.000000 
L_forearm 0.000000 0.000000 0.000000 0.000000 0.000000 0.000000 10.000000 
L_front_hand 0.000000 0.000000 0.000000 0.000000 0.000000 0.000000 10.000000 
L_weapon_bone 0.000000 0.000000 0.000000 0.000000 0.000000 0.000000 10.000000 
L_front_hand01_01 0.000000 0.000000 0.000000 0.000000 0.000000 0.000000 10.000000 
L_front_hand02_01 0.000000 0.000000 0.000000 0.000000 0.000000 0.000000 10.000000 
L_front_hand03_01 0.000000 0.000000 0.000000 0.000000 0.000000 0.000000 10.000000 
L_front_hand01_02 0.000000 0.000000 0.000000 0.000000 0.000000 0.000000 10.000000 
L_front_hand02_02 0.000000 0.000000 0.000000 0.000000 0.000000 0.000000 10.000000 
L_front_hand03_02 0.000000 0.000000 0.000000 0.000000 0.000000 0.000000 10.000000 
R_forearm 0.000000 0.000000 0.000000 0.000000 0.000000 0.000000 10.000000 
R_front_hand 0.000000 0.000000 0.000000 0.000000 0.000000 0.000000 10.000000 
R_weapon_bone 0.000000 0.000000 0.000000 0.000000 0.000000 0.000000 10.000000 
R_front_hand01_01 0.000000 0.000000 0.000000 0.000000 0.000000 0.000000 10.000000 
R_front_hand02_01 0.000000 0.000000 0.000000 0.000000 0.000000 0.000000 10.000000 
R_front_hand03_01 0.000000 0.000000 0.000000 0.000000 0.000000 0.000000 10.000000 
R_front_hand01_02 0.000000 0.000000 0.000000 0.000000 0.000000 0.000000 10.000000 
R_front_hand02_02 0.000000 0.000000 0.000000 0.000000 0.000000 0.000000 10.000000 
R_front_hand03_02 0.000000 0.000000 0.000000 0.000000 0.000000 0.000000 10.000000 
null_rope01_connect 0.000000 0.000000 0.000000 0.000000 0.000000 0.000000 10.000000 
Rope1_Seg01 0.000000 0.000000 0.000000 0.000000 0.000000 0.000000 10.000000 
Rope1_Seg02 0.000000 0.000000 0.000000 0.000000 0.000000 0.000000 10.000000 
Rope1_Seg03 0.000000 0.000000 0.000000 0.000000 0.000000 0.000000 10.000000 
Rope1_Seg04 0.000000 0.000000 0.000000 0.000000 0.000000 0.000000 10.000000 
Rope1_Seg05 0.000000 0.000000 0.000000 0.000000 0.000000 0.000000 10.000000 
Rope1_Seg06 0.000000 0.000000 0.000000 0.000000 0.000000 0.000000 10.000000 
Rope1_Seg07 0.000000 0.000000 0.000000 0.000000 0.000000 0.000000 10.000000 
Rope1_Seg09 0.000000 0.000000 0.000000 0.000000 0.000000 0.000000 10.000000 
L_mid_hand01 0.000000 0.000000 0.000000 0.000000 0.000000 0.000000 10.000000 
L_mid_hand02 0.000000 0.000000 0.000000 0.000000 0.000000 0.000000 10.000000 
L_mid_hand03 0.000000 0.000000 0.000000 0.000000 0.000000 0.000000 10.000000 
null_rope02_connect 0.000000 0.000000 0.000000 0.000000 0.000000 0.000000 10.000000 
Rope2_Seg01 0.000000 0.000000 0.000000 0.000000 0.000000 0.000000 10.000000 
Rope2_Seg02 0.000000 0.000000 0.000000 0.000000 0.000000 0.000000 10.000000 
Rope2_Seg03 0.000000 0.000000 0.000000 0.000000 0.000000 0.000000 10.000000 
Rope2_Seg04 0.000000 0.000000 0.000000 0.000000 0.000000 0.000000 10.000000 
Rope2_Seg05 0.000000 0.000000 0.000000 0.000000 0.000000 0.000000 10.000000 
Rope2_Seg06 0.000000 0.000000 0.000000 0.000000 0.000000 0.000000 10.000000 
Rope2_Seg07 0.000000 0.000000 0.000000 0.000000 0.000000 0.000000 10.000000 
Rope2_Seg09 0.000000 0.000000 0.000000 0.000000 0.000000 0.000000 10.000000 
R_mid_hand01 0.000000 0.000000 0.000000 0.000000 0.000000 0.000000 10.000000 
R_mid_hand02 0.000000 0.000000 0.000000 0.000000 0.000000 0.000000 10.000000 
R_mid_hand03 0.000000 0.000000 0.000000 0.000000 0.000000 0.000000 10.000000 
spine02 0.000000 0.000000 0.000000 0.000000 0.000000 0.000000 10.000000 
spine03 0.000000 0.000000 0.000000 0.000000 0.000000 0.000000 10.000000 
pelvis 0.000000 0.000000 0.000000 0.000000 0.000000 0.000000 10.000000 
null_rope03_connect 0.000000 0.000000 0.000000 0.000000 0.000000 0.000000 10.000000 
null_rope04_connect 0.000000 0.000000 0.000000 0.000000 0.000000 0.000000 10.000000 
Rope3_Seg01 0.000000 0.000000 0.000000 0.000000 0.000000 0.000000 10.000000 
Rope3_Seg02 0.000000 0.000000 0.000000 0.000000 0.000000 0.000000 10.000000 
Rope3_Seg03 0.000000 0.000000 0.000000 0.000000 0.000000 0.000000 10.000000 
Rope3_Seg04 0.000000 0.000000 0.000000 0.000000 0.000000 0.000000 10.000000 
Rope3_Seg05 0.000000 0.000000 0.000000 0.000000 0.000000 0.000000 10.000000 
Rope3_Seg06 0.000000 0.000000 0.000000 0.000000 0.000000 0.000000 10.000000 
Rope3_Seg07 0.000000 0.000000 0.000000 0.000000 0.000000 0.000000 10.000000 
Rope3_Seg08 0.000000 0.000000 0.000000 0.000000 0.000000 0.000000 10.000000 
Rope3_Seg09 0.000000 0.000000 0.000000 0.000000 0.000000 0.000000 10.000000 
R_rear_hand01 0.000000 0.000000 0.000000 0.000000 0.000000 0.000000 10.000000 
R_rear_hand02 0.000000 0.000000 0.000000 0.000000 0.000000 0.000000 10.000000 
R_rear_hand03 0.000000 0.000000 0.000000 0.000000 0.000000 0.000000 10.000000 
Rope4_Seg01 0.000000 0.000000 0.000000 0.000000 0.000000 0.000000 10.000000 
Rope4_Seg02 0.000000 0.000000 0.000000 0.000000 0.000000 0.000000 10.000000 
Rope4_Seg03 0.000000 0.000000 0.000000 0.000000 0.000000 0.000000 10.000000 
Rope4_Seg04 0.000000 0.000000 0.000000 0.000000 0.000000 0.000000 10.000000 
Rope4_Seg05 0.000000 0.000000 0.000000 0.000000 0.000000 0.000000 10.000000 
Rope4_Seg06 0.000000 0.000000 0.000000 0.000000 0.000000 0.000000 10.000000 
Rope4_Seg07 0.000000 0.000000 0.000000 0.000000 0.000000 0.000000 10.000000 
Rope4_Seg08 0.000000 0.000000 0.000000 0.000000 0.000000 0.000000 10.000000 
Rope4_Seg09 0.000000 0.000000 0.000000 0.000000 0.000000 0.000000 10.000000 
L_rear_hand01 0.000000 0.000000 0.000000 0.000000 0.000000 0.000000 10.000000 
L_rear_hand02 0.000000 0.000000 0.000000 0.000000 0.000000 0.000000 10.000000 
L_rear_hand03 0.000000 0.000000 0.000000 0.000000 0.000000 0.000000 10.000000 
#Beginning of Data. Separated by tabs
#Fr	Tx	Ty	Tz	Rx	Ry	Rz	SF
[MASTER]
6 0.000003 -0.000093 -337.849854 0.001660 0.001660 0.001660 337.849854
7 0.000003 -0.000092 -467.321198 0.001660 0.001660 0.001660 467.321198
[root]
6 -16.502296 -30.730177 1473.912354 -76.441650 -12.830865 -85.050354 1474.325073
7 -16.502298 -29.698614 1472.832031 -80.006737 -13.057384 -86.323814 1473.223877
[chest]
6 -84.512650 -34.090519 0.000000 -101.315247 6.273892 149.419632 91.129311
7 -84.512650 -34.090519 0.000000 -90.603996 5.887104 151.967377 91.129311
[L_mid_tent01]
6 27.299292 22.178423 -249.918518 -155.963043 56.965309 -65.240387 252.381454
7 27.299290 22.178438 -249.918518 -150.249619 63.673634 -60.764336 252.381454
[R_mid_tent01]
6 23.228794 24.509907 226.238495 -155.937531 -80.981102 44.889973 228.744751
7 23.228794 24.509907 226.238495 -168.027893 -79.647537 57.113396 228.744751
[spine01]
6 -0.361383 -0.195265 0.000000 0.002062 0.001122 32.879829 0.410763
7 -0.361383 -0.195265 0.000000 0.002062 0.001122 32.879822 0.410763
[Bip01_Neck]
6 165.484543 71.581718 0.000119 176.643677 -1.657967 43.431911 180.302734
7 165.484543 71.581718 0.000119 176.643677 -1.657967 43.431911 180.302734
[L_humerus]
6 -13.983130 -135.272980 -120.471481 164.696548 67.904556 -105.563240 181.680161
7 -13.983130 -135.272980 -120.471481 163.270538 68.326378 -106.889458 181.680161
[R_humerus]
6 -13.983309 -135.273102 125.287651 -175.767136 -70.510880 -87.465050 184.909012
7 -13.983309 -135.273102 125.287651 -174.944733 -70.104355 -88.749939 184.909012
[weapon_bone]
6 235.964890 -300.705902 0.000000 0.000000 -89.951546 -128.212341 382.234833
7 235.964890 -300.705902 0.000000 0.000000 -89.951546 -128.212341 382.234833
[Bip01_Head]
6 213.334824 185.993576 8.188127 27.010876 5.548942 -43.845169 283.147339
7 213.333359 186.002274 8.076214 28.037668 5.651574 -43.840866 283.148712
[eye_left_bone]
6 -24.626970 125.451866 -64.772606 0.000000 -90.000000 -99.840431 143.318359
7 -24.626970 125.451866 -64.772606 0.000000 -90.000000 -99.840431 143.318359
[eye_right_bone]
6 -24.626970 125.451866 64.327362 0.000000 -89.965736 80.156380 143.117676
7 -24.626970 125.451866 64.327362 0.000000 -89.965736 80.156380 143.117676
[L_forearm]
6 322.776093 0.000000 -0.000119 0.000233 -0.002336 -101.378044 322.776093
7 322.776093 0.000000 -0.000119 0.000224 -0.002337 -100.942703 322.776093
[L_front_hand]
6 241.149185 -0.042021 -3.300071 -178.470886 -1.675723 -33.792099 241.171753
7 241.149185 -0.042021 -3.300071 -178.481430 -1.685480 -33.438972 241.171753
[L_weapon_bone]
6 156.183838 0.000000 0.000000 0.000014 0.000007 0.000001 156.183838
7 156.183838 0.000000 0.000000 0.000014 0.000007 0.000001 156.183838
[L_front_hand01_01]
6 86.095154 20.947098 -0.655860 -0.351206 -0.488725 73.602417 88.609184
7 86.095154 20.947098 -0.655860 -0.357679 -0.483915 74.196533 88.609184
[L_front_hand02_01]
6 86.935165 -11.437475 24.513514 151.709930 -59.079346 -58.243755 91.046425
7 86.935165 -11.437475 24.513514 152.590393 -59.355103 -59.266994 91.046425
[L_front_hand03_01]
6 86.637497 -14.123976 -20.424902 -151.412430 57.299263 -59.741020 90.126129
7 86.637497 -14.123976 -20.424902 -152.231094 57.581371 -60.718422 90.126129
[L_front_hand01_02]
6 71.020905 -0.000179 0.000030 0.000325 -0.002325 -105.920959 71.020905
7 71.020905 -0.000179 0.000030 0.000326 -0.002324 -105.981560 71.020905
[L_front_hand02_02]
6 71.020927 -0.000119 0.000060 0.000325 -0.002325 -105.920959 71.020927
7 71.020927 -0.000119 0.000060 0.000326 -0.002324 -105.981560 71.020927
[L_front_hand03_02]
6 71.020905 -0.000060 0.000060 0.000325 -0.002325 -105.920959 71.020905
7 71.020905 -0.000060 0.000060 0.000326 -0.002324 -105.981560 71.020905
[R_forearm]
6 322.776428 -0.000060 0.000030 0.211507 0.031160 -99.267822 322.776428
7 322.776428 -0.000060 0.000030 0.211709 0.029259 -98.867317 322.776428
[R_front_hand]
6 238.847015 -0.006795 2.210259 -1.221211 -10.895390 -33.859566 238.857239
7 238.847015 -0.006795 2.210259 -1.301822 -10.885586 -33.430145 238.857239
[R_weapon_bone]
6 155.664093 0.002503 -0.000030 0.003487 0.001180 -90.988930 155.664078
7 155.664093 0.002503 -0.000030 0.003487 0.001180 -90.988930 155.664078
[R_front_hand01_01]
6 87.624611 14.231146 22.918642 -154.633499 -59.950619 61.746044 91.683487
7 87.624611 14.231146 22.918642 -154.633499 -59.950619 61.746044 91.683487
[R_front_hand02_01]
6 89.356956 14.367283 -19.491137 154.602661 58.302849 63.744389 92.579636
7 89.356956 14.367283 -19.491137 154.602661 58.302864 63.744381 92.579636
[R_front_hand03_01]
6 87.286232 -22.307278 -0.143439 0.162155 -0.423168 -75.767921 90.091743
7 87.286232 -22.307278 -0.143439 0.162155 -0.423168 -75.767921 90.091743
[R_front_hand01_02]
6 71.020905 0.000060 0.000119 0.002323 -0.000334 106.381714 71.020905
7 71.020905 0.000060 0.000119 0.002323 -0.000334 106.381721 71.020905
[R_front_hand02_02]
6 71.020844 -0.000030 -0.000119 0.002323 -0.000334 106.381714 71.020836
7 71.020844 -0.000030 -0.000119 0.002323 -0.000334 106.381721 71.020836
[R_front_hand03_02]
6 71.020905 0.000000 0.000030 0.002323 -0.000334 106.381714 71.020905
7 71.020905 0.000000 0.000030 0.002323 -0.000334 106.381721 71.020905
[null_rope01_connect]
6 328.732483 0.000000 -0.000238 -162.900726 14.916738 -161.030594 328.732483
7 328.732483 0.000000 -0.000238 -163.069473 11.621117 -163.186783 328.732483
[Rope1_Seg01]
6 0.000010 -0.000055 0.000039 -6.722369 3.325066 -165.046158 0.000068
7 0.000012 -0.000054 0.000047 -8.939493 0.828748 -166.246643 0.000073
[Rope1_Seg02]
6 139.999863 -0.000179 0.000000 -11.744231 -12.536323 -12.163430 139.999863
7 139.999863 -0.000179 0.000000 -12.053775 -12.585074 -12.909410 139.999863
[Rope1_Seg03]
6 139.999924 0.000060 -0.000060 -10.206556 -10.099461 -20.497362 139.999924
7 139.999924 0.000060 -0.000060 -10.328956 -10.497598 -21.871481 139.999924
[Rope1_Seg04]
6 139.999924 -0.000060 -0.000119 -4.973932 -6.110204 -18.656624 139.999924
7 139.999924 -0.000060 -0.000119 -4.522381 -5.395067 -19.770803 139.999924
[Rope1_Seg05]
6 139.999832 0.000119 -0.000060 -3.610266 -14.536229 -8.920990 139.999832
7 139.999832 0.000119 -0.000060 -2.337786 -11.080905 -6.041723 139.999832
[Rope1_Seg06]
6 139.999954 0.000119 -0.000060 -3.213243 -10.073111 -6.001206 139.999954
7 139.999954 0.000119 -0.000060 -2.223956 -8.470758 -2.973776 139.999954
[Rope1_Seg07]
6 139.999985 0.000060 0.000000 -1.942286 -4.547240 -4.308244 139.999985
7 139.999985 0.000060 0.000000 -1.513197 -3.982000 -2.989786 139.999985
[Rope1_Seg09]
6 121.602913 0.000119 -0.000089 -89.793175 -1.359789 0.847147 121.602913
7 121.602913 0.000119 -0.000089 -89.793175 -1.359789 0.847147 121.602913
[L_mid_hand01]
6 103.859421 1.038730 8.195221 130.544373 -67.584534 -38.866943 104.187431
7 103.859421 1.038730 8.195221 130.544373 -67.584534 -38.866947 104.187431
[L_mid_hand02]
6 105.572853 -4.139662 -10.864139 -168.923172 43.409309 -73.498886 106.211075
7 105.572853 -4.139662 -10.864139 -168.923172 43.409309 -73.498886 106.211075
[L_mid_hand03]
6 104.641464 17.579376 -3.913581 -6.012628 17.808174 74.893669 106.179977
7 104.641464 17.579376 -3.913581 -6.012629 17.808178 74.893669 106.179977
[null_rope02_connect]
6 328.732849 0.000179 -0.000119 -146.968246 -7.181114 -4.326556 328.732849
7 328.732849 0.000179 -0.000119 -146.572922 -1.260864 -2.618253 328.732849
[Rope2_Seg01]
6 -0.000052 0.000100 0.000000 76.071068 40.023315 11.632222 0.000113
7 -0.000047 0.000100 0.000000 72.761589 43.244068 8.048494 0.000111
[Rope2_Seg02]
6 139.999741 -0.000060 -0.000119 1.629990 3.663533 5.826429 139.999756
7 139.999741 -0.000060 -0.000119 1.221038 3.724452 4.149555 139.999756
[Rope2_Seg03]
6 140.000107 0.000030 0.000000 3.866889 8.202011 13.719911 140.000107
7 140.000107 0.000030 0.000000 2.533725 8.013593 9.492516 140.000107
[Rope2_Seg04]
6 139.999802 0.000000 -0.000060 13.933433 19.945803 44.483036 139.999802
7 139.999802 0.000000 -0.000060 10.816621 25.180586 40.225986 139.999802
[Rope2_Seg05]
6 139.999985 -0.000060 0.000119 -4.991935 34.566483 -10.805500 139.999985
7 139.999985 -0.000060 0.000119 -6.696049 36.766029 -18.734844 139.999985
[Rope2_Seg06]
6 139.999893 -0.000030 -0.000119 -1.126954 14.028726 -6.044710 139.999893
7 139.999893 -0.000030 -0.000119 -0.000961 8.238474 -4.030483 139.999893
[Rope2_Seg07]
6 139.999893 0.000060 -0.000060 -1.833560 6.083559 -1.259827 139.999893
7 139.999893 0.000060 -0.000060 -0.641932 3.665274 -1.246078 139.999893
[Rope2_Seg09]
6 121.338966 0.000089 -0.000060 33.793236 -1.359788 -0.847141 121.338966
7 121.338966 0.000089 -0.000060 33.793236 -1.359788 -0.847141 121.338966
[R_mid_hand01]
6 104.680779 11.144459 -10.335981 -16.212063 45.237240 70.462852 105.778534
7 104.680779 11.144459 -10.335981 -16.212059 45.237240 70.462852 105.778534
[R_mid_hand02]
6 104.070427 2.443552 8.231699 49.067368 -67.749771 39.286453 104.424065
7 104.070427 2.443552 8.231699 49.067368 -67.749771 39.286453 104.424065
[R_mid_hand03]
6 106.028137 -11.221827 -5.996406 -177.101105 15.551026 -76.585571 106.788818
7 106.028137 -11.221827 -5.996406 -177.101105 15.551024 -76.585571 106.788818
[spine02]
6 129.756927 0.001550 0.000119 -1.198514 -4.213102 9.211735 129.756927
7 129.756927 0.001550 0.000119 -1.202334 -4.194177 9.266240 129.756927
[spine03]
6 78.613976 0.083849 -4.898922 0.922002 4.789992 2.707370 78.766510
7 78.613983 0.083788 -4.898925 0.920076 4.755562 2.680983 78.766518
[pelvis]
6 169.435242 0.051022 0.000000 0.024578 0.057782 -13.790501 169.435257
7 169.435242 0.051022 0.000000 0.026134 0.044707 -13.860239 169.435257
[null_rope03_connect]
6 -1.257226 -2.466202 137.391083 31.002550 -75.392487 40.365856 137.418976
7 -1.257226 -2.466202 137.391083 31.671957 -79.390007 40.228233 137.418976
[null_rope04_connect]
6 -1.259640 -2.480268 -137.844437 31.002550 -75.392487 40.365856 137.872513
7 -1.259640 -2.480268 -137.844437 31.671957 -79.390007 40.228233 137.872513
[Rope3_Seg01]
6 -0.000029 -0.000033 0.000039 14.144270 -5.170639 -56.453186 0.000059
7 -0.000029 -0.000032 0.000047 14.171449 -5.515616 -57.129578 0.000064
[Rope3_Seg02]
6 139.999924 -0.000119 0.000060 -2.097846 -5.526379 2.757578 139.999924
7 139.999924 -0.000119 0.000060 -2.058208 -5.443858 3.006702 139.999924
[Rope3_Seg03]
6 139.999924 -0.000119 0.000119 -2.982499 -8.277435 3.799443 139.999924
7 139.999924 -0.000119 0.000119 -2.899687 -7.936548 4.061812 139.999924
[Rope3_Seg04]
6 139.999924 0.000119 0.000000 -4.610489 -13.545300 6.109312 139.999924
7 139.999924 0.000119 0.000000 -4.568206 -12.467771 6.603111 139.999924
[Rope3_Seg05]
6 139.999924 -0.000238 0.000060 -6.492843 -22.300900 10.248213 139.999924
7 139.999924 -0.000238 0.000060 -6.584866 -19.262913 10.461097 139.999924
[Rope3_Seg06]
6 139.999893 -0.000119 -0.000060 -0.128977 -11.638077 -1.352330 139.999893
7 139.999893 -0.000119 -0.000060 -0.317399 -10.839739 -2.397714 139.999893
[Rope3_Seg07]
6 139.999771 0.000060 -0.000119 0.389371 -0.963308 -7.777572 139.999771
7 139.999771 0.000060 -0.000119 0.619616 -2.306288 -8.988466 139.999771
[Rope3_Seg08]
6 139.999985 -0.000060 0.000000 0.786131 -3.381527 -3.099542 139.999985
7 139.999985 -0.000060 0.000000 0.827133 -3.833272 -3.510360 139.999985
[Rope3_Seg09]
6 90.185997 -0.000179 -0.000060 89.793228 -1.359877 -0.847183 90.185997
7 90.185997 -0.000179 -0.000060 89.793228 -1.359877 -0.847183 90.185997
[R_rear_hand01]
6 103.366196 -6.073594 -10.757982 -177.714203 24.565960 -73.910950 104.101845
7 103.366196 -6.073594 -10.757982 -177.714203 24.565960 -73.910950 104.101845
[R_rear_hand02]
6 100.509819 12.039542 -7.992327 -12.874829 36.868488 72.167213 101.543350
7 100.509819 12.039542 -7.992327 -12.874829 36.868488 72.167213 101.543350
[R_rear_hand03]
6 101.539970 5.215704 5.435467 71.484581 -71.816628 21.513813 101.819031
7 101.539970 5.215704 5.435467 71.484581 -71.816628 21.513813 101.819031
[Rope4_Seg01]
6 0.000000 0.000000 0.000000 -95.425819 -18.341541 -116.113380 0.000000
7 0.000000 0.000000 0.000000 -94.808510 -19.391911 -117.294441 0.000000
[Rope4_Seg02]
6 139.999985 0.000060 0.000119 0.978275 2.256255 -10.411489 139.999985
7 139.999985 0.000060 0.000119 1.162117 2.504544 -11.469531 139.999985
[Rope4_Seg03]
6 139.999924 0.000000 -0.000238 0.531784 2.349854 -11.940723 139.999924
7 139.999924 0.000000 -0.000238 0.619787 2.588731 -12.684576 139.999924
[Rope4_Seg04]
6 139.999985 0.000000 0.000119 -0.038943 3.387199 -11.090070 139.999985
7 139.999985 0.000000 0.000119 0.052026 3.513823 -10.640365 139.999985
[Rope4_Seg05]
6 139.999802 -0.000060 -0.000119 -0.252131 1.399305 -10.183921 139.999802
7 139.999802 -0.000060 -0.000119 -0.171681 0.670889 -10.906405 139.999802
[Rope4_Seg06]
6 139.999924 0.000000 0.000060 -1.016242 -1.480266 -13.689406 139.999924
7 139.999924 0.000000 0.000060 -1.280779 -2.485213 -15.592546 139.999924
[Rope4_Seg07]
6 139.999802 0.000000 0.000000 -3.051206 -1.845678 -15.983737 139.999802
7 139.999802 0.000000 0.000000 -3.313109 -1.763924 -15.058754 139.999802
[Rope4_Seg08]
6 139.999924 0.000000 0.000119 -5.013002 -0.094643 -10.687763 139.999924
7 139.999924 0.000000 0.000119 -4.796380 -0.206262 -9.450040 139.999924
[Rope4_Seg09]
6 90.185791 0.000060 0.000060 -135.617828 2.228885 0.850567 90.185791
7 90.185791 0.000060 0.000060 -135.617828 2.228885 0.850567 90.185791
[L_rear_hand01]
6 101.696655 -8.392275 -7.654577 -12.874829 -36.868488 107.832764 102.329041
7 101.696655 -8.392275 -7.654577 -12.874829 -36.868488 107.832764 102.329041
[L_rear_hand02]
6 102.726799 -1.568258 5.773216 71.484581 71.816628 158.486160 102.900848
7 102.726799 -1.568258 5.773216 71.484581 71.816628 158.486160 102.900848
[L_rear_hand03]
6 104.552910 9.721220 -10.420293 -177.714203 -24.565960 -106.089035 105.519653
7 104.552910 9.721220 -10.420293 -177.714203 -24.565960 -106.089035 105.519653
